<svg width="47" height="45" viewBox="0 0 47 45" fill="none" xmlns="http://www.w3.org/2000/svg">
<g clip-path="url(#clip0_190_72)">
<path d="M0.850586 1.92154C1.26795 0.773796 2.10962 0.370348 3.29214 0.405128C4.90593 0.45382 6.51973 0.41904 8.13352 0.41904C9.4482 0.41904 10.0186 0.8364 10.436 2.09544C10.9646 3.6814 11.4933 5.26737 12.0219 6.84638C12.3489 7.82718 12.7036 8.0776 13.7261 8.0776C23.7567 8.0776 33.7803 8.0776 43.8108 8.0776C44.1099 8.0776 44.416 8.07064 44.7012 8.1402C45.8072 8.41844 46.3637 9.5314 45.9811 10.6861C45.3412 12.6407 44.6873 14.5954 44.0404 16.543C43.0387 19.555 42.0301 22.5669 41.0215 25.5858C40.625 26.7684 40.0407 27.1927 38.8095 27.1927C32.2013 27.1927 25.6 27.1927 18.9918 27.1927C17.8997 27.1927 17.5937 27.4292 17.3293 28.4795C17.225 28.883 17.1137 29.2864 17.0233 29.6968C16.8703 30.4064 17.2598 30.942 17.9832 31.0185C18.1641 31.0394 18.338 31.0254 18.5188 31.0254C25.8991 31.0254 33.2864 31.0254 40.6667 31.0324C41.0076 31.0324 41.3623 31.0463 41.6823 31.1507C42.5518 31.4358 43.0387 32.3193 42.9066 33.2514C42.7814 34.1069 42.0371 34.7747 41.1467 34.8304C41.0284 34.8373 40.9102 34.8373 40.785 34.8373C33.2655 34.8373 25.7531 34.8373 18.2336 34.8373C15.7434 34.8373 13.7887 33.2722 13.267 30.8794C13.1001 30.1212 13.1488 29.363 13.3436 28.6187C14.2409 25.1615 14.1852 25.4119 13.0723 22.1078C11.2081 16.5361 9.35777 10.9574 7.49357 5.38562C7.20837 4.52308 6.83275 4.2518 5.91455 4.2518C5.01723 4.2518 4.11991 4.21702 3.22258 4.25875C2.04006 4.32136 1.24012 3.86226 0.850586 2.72843C0.850586 2.45715 0.850586 2.19282 0.850586 1.92154Z" fill="black"/>
<path d="M15.5553 44.4227C15.1936 44.2906 14.818 44.1932 14.4771 44.0263C12.8007 43.2194 11.966 41.3343 12.4738 39.5605C12.9885 37.745 14.6719 36.6251 16.6057 36.8059C18.3168 36.9659 19.8124 38.4893 19.9445 40.2005C20.0906 42.1481 18.9568 43.8037 17.1274 44.2975C16.9882 44.3323 16.8491 44.388 16.71 44.4297C16.3344 44.4228 15.9448 44.4227 15.5553 44.4227Z" fill="black"/>
<path d="M38.5099 44.4227C38.1482 44.2906 37.7726 44.1932 37.4317 44.0263C35.7553 43.2194 34.9206 41.3343 35.4284 39.5605C35.9431 37.745 37.6265 36.6251 39.5603 36.8059C41.2714 36.9659 42.767 38.4893 42.8991 40.2005C43.0452 42.1481 41.9114 43.8037 40.082 44.2975C39.9428 44.3323 39.8037 44.388 39.6646 44.4297C39.289 44.4228 38.8994 44.4227 38.5099 44.4227Z" fill="black"/>
</g>
<defs>
<clipPath id="clip0_190_72">
<rect width="45.2488" height="44.0176" fill="white" transform="translate(0.850586 0.405273)"/>
</clipPath>
</defs>
</svg>
