<svg width="54" height="45" viewBox="0 0 54 45" fill="none" xmlns="http://www.w3.org/2000/svg">
<g clip-path="url(#clip0_190_120)">
<path d="M45.7926 2.04823C39.2221 4.78982 11.0492 16.5401 3.26494 19.7467C-1.95536 21.7974 1.10118 23.7196 1.10118 23.7196C1.10118 23.7196 5.55624 25.2609 9.37801 26.4125C13.1998 27.5685 15.236 26.284 15.236 26.284L33.1882 14.0997C39.5564 9.7415 38.0259 13.329 36.4998 14.8703C33.1882 18.2054 27.7128 23.4627 23.1302 27.6925C21.094 29.4862 22.1099 31.0275 23.0027 31.7938C26.3143 34.6151 35.3564 40.3861 35.8621 40.7715C38.5536 42.6892 43.8443 45.4486 44.6491 39.6155L47.8332 19.481C48.8535 12.6868 49.8694 6.40199 49.997 4.60823C50.3752 0.250034 45.7926 2.04823 45.7926 2.04823Z" fill="white"/>
</g>
<defs>
<clipPath id="clip0_190_120">
<rect width="53" height="44" fill="white" transform="translate(0.850586 0.405273)"/>
</clipPath>
</defs>
</svg>
