<svg width="77" height="65" viewBox="0 0 77 65" fill="none" xmlns="http://www.w3.org/2000/svg">
<path d="M70.381 0.576412C60.0914 4.87572 15.9716 23.3023 3.78115 28.3309C-4.39403 31.5467 0.392619 34.5611 0.392619 34.5611C0.392619 34.5611 7.36942 36.9781 13.3545 38.784C19.3395 40.5968 22.5283 38.5825 22.5283 38.5825L50.6421 19.4753C60.6149 12.6409 58.2181 18.2668 55.8282 20.6838C50.6421 25.9138 42.0675 34.1582 34.8909 40.7912C31.7021 43.6042 33.2931 46.0212 34.6912 47.2228C39.8773 51.6471 54.0375 60.6972 54.8296 61.3015C59.0446 64.3089 67.33 68.636 68.5903 59.4887L73.5767 27.9142C75.1746 17.2597 76.7655 7.4039 76.9652 4.59095C77.5576 -2.24349 70.381 0.576412 70.381 0.576412Z" fill="#014A0C"/>
</svg>
